<mxfile host="65bd71144e">
    <diagram id="XKChx3mu4P1cbXN4DGbn" name="UseCase">
        <mxGraphModel dx="2168" dy="749" grid="1" gridSize="10" guides="1" tooltips="1" connect="1" arrows="1" fold="1" page="1" pageScale="1" pageWidth="850" pageHeight="1100" math="0" shadow="0">
            <root>
                <mxCell id="0"/>
                <mxCell id="1" parent="0"/>
                <mxCell id="16" value="EduSportCV" style="shape=umlFrame;whiteSpace=wrap;html=1;width=120;height=30;boundedLbl=1;verticalAlign=middle;align=left;spacingLeft=5;" vertex="1" parent="1">
                    <mxGeometry x="150" y="100" width="1020" height="700" as="geometry"/>
                </mxCell>
                <mxCell id="2" value="A01-Public" style="shape=umlActor;verticalLabelPosition=bottom;verticalAlign=top;html=1;" parent="1" vertex="1">
                    <mxGeometry x="50" y="200" width="30" height="60" as="geometry"/>
                </mxCell>
                <mxCell id="4" value="Register" style="ellipse;whiteSpace=wrap;html=1;" parent="1" vertex="1">
                    <mxGeometry x="300" y="130" width="140" height="70" as="geometry"/>
                </mxCell>
                <mxCell id="5" value="Choose Sport" style="ellipse;whiteSpace=wrap;html=1;" parent="1" vertex="1">
                    <mxGeometry x="615" y="330" width="140" height="70" as="geometry"/>
                </mxCell>
                <mxCell id="6" value="Created a Team" style="ellipse;whiteSpace=wrap;html=1;" parent="1" vertex="1">
                    <mxGeometry x="450" y="455" width="140" height="70" as="geometry"/>
                </mxCell>
                <mxCell id="7" value="Invite other user to the team" style="ellipse;whiteSpace=wrap;html=1;" parent="1" vertex="1">
                    <mxGeometry x="630" y="150" width="140" height="80" as="geometry"/>
                </mxCell>
                <mxCell id="8" value="Search for field&amp;nbsp;" style="ellipse;whiteSpace=wrap;html=1;" parent="1" vertex="1">
                    <mxGeometry x="320" y="690" width="140" height="70" as="geometry"/>
                </mxCell>
                <mxCell id="10" value="A02-Private" style="shape=umlActor;verticalLabelPosition=bottom;verticalAlign=top;html=1;" parent="1" vertex="1">
                    <mxGeometry x="50" y="525" width="30" height="60" as="geometry"/>
                </mxCell>
                <mxCell id="17" value="Login" style="ellipse;whiteSpace=wrap;html=1;" vertex="1" parent="1">
                    <mxGeometry x="200" y="350" width="140" height="70" as="geometry"/>
                </mxCell>
                <mxCell id="18" value="" style="endArrow=none;html=1;" edge="1" parent="1" source="10" target="17">
                    <mxGeometry width="50" height="50" relative="1" as="geometry">
                        <mxPoint x="290" y="420" as="sourcePoint"/>
                        <mxPoint x="340" y="370" as="targetPoint"/>
                    </mxGeometry>
                </mxCell>
                <mxCell id="19" value="" style="endArrow=none;html=1;" edge="1" parent="1" source="2" target="4">
                    <mxGeometry width="50" height="50" relative="1" as="geometry">
                        <mxPoint x="90" y="572.0972329033305" as="sourcePoint"/>
                        <mxPoint x="299.04052768167094" y="671.0045203161269" as="targetPoint"/>
                    </mxGeometry>
                </mxCell>
                <mxCell id="20" value="View official games" style="ellipse;whiteSpace=wrap;html=1;" vertex="1" parent="1">
                    <mxGeometry x="355" y="250" width="140" height="70" as="geometry"/>
                </mxCell>
                <mxCell id="21" value="" style="endArrow=none;html=1;" edge="1" parent="1" source="2" target="20">
                    <mxGeometry width="50" height="50" relative="1" as="geometry">
                        <mxPoint x="90" y="238.22461290114484" as="sourcePoint"/>
                        <mxPoint x="471.8659371228989" y="193.02728901712965" as="targetPoint"/>
                    </mxGeometry>
                </mxCell>
                <mxCell id="22" value="" style="endArrow=block;endFill=0;endSize=12;html=1;" edge="1" parent="1" source="10" target="2">
                    <mxGeometry width="160" relative="1" as="geometry">
                        <mxPoint x="490" y="450" as="sourcePoint"/>
                        <mxPoint x="650" y="450" as="targetPoint"/>
                        <Array as="points">
                            <mxPoint x="10" y="280"/>
                        </Array>
                    </mxGeometry>
                </mxCell>
                <mxCell id="23" value="Update Profile" style="ellipse;whiteSpace=wrap;html=1;" vertex="1" parent="1">
                    <mxGeometry x="365" y="380" width="120" height="70" as="geometry"/>
                </mxCell>
                <mxCell id="24" value="" style="endArrow=none;html=1;" edge="1" parent="1" source="10" target="23">
                    <mxGeometry width="50" height="50" relative="1" as="geometry">
                        <mxPoint x="90" y="558.8160328004428" as="sourcePoint"/>
                        <mxPoint x="506.0421985183398" y="387.29661218250453" as="targetPoint"/>
                    </mxGeometry>
                </mxCell>
                <mxCell id="25" value="" style="endArrow=none;html=1;" edge="1" parent="1" source="10" target="6">
                    <mxGeometry width="50" height="50" relative="1" as="geometry">
                        <mxPoint x="90" y="561.3271674282314" as="sourcePoint"/>
                        <mxPoint x="509.6889172906681" y="458.56402573253376" as="targetPoint"/>
                    </mxGeometry>
                </mxCell>
                <mxCell id="26" value="&amp;lt;&amp;lt;include&amp;gt;&amp;gt;" style="endArrow=open;endSize=12;html=1;" edge="1" parent="1" source="6" target="5">
                    <mxGeometry x="0.0182" y="21" width="160" relative="1" as="geometry">
                        <mxPoint x="490" y="450" as="sourcePoint"/>
                        <mxPoint x="650" y="450" as="targetPoint"/>
                        <mxPoint as="offset"/>
                    </mxGeometry>
                </mxCell>
                <mxCell id="28" value="Register Field" style="ellipse;whiteSpace=wrap;html=1;" vertex="1" parent="1">
                    <mxGeometry x="600" y="650" width="140" height="70" as="geometry"/>
                </mxCell>
                <mxCell id="29" value="" style="endArrow=none;html=1;" edge="1" parent="1" source="10" target="28">
                    <mxGeometry width="50" height="50" relative="1" as="geometry">
                        <mxPoint x="90" y="564.3816580113914" as="sourcePoint"/>
                        <mxPoint x="490.23783705615233" y="547.8827340059443" as="targetPoint"/>
                    </mxGeometry>
                </mxCell>
                <mxCell id="30" value="Register opening hours&amp;nbsp;" style="ellipse;whiteSpace=wrap;html=1;" vertex="1" parent="1">
                    <mxGeometry x="910" y="570" width="140" height="70" as="geometry"/>
                </mxCell>
                <mxCell id="31" value="&amp;lt;&amp;lt;include&amp;gt;&amp;gt;" style="endArrow=open;endSize=12;html=1;" edge="1" parent="1" source="28" target="30">
                    <mxGeometry x="0.0182" y="21" width="160" relative="1" as="geometry">
                        <mxPoint x="619.8026789802552" y="526.809071032622" as="sourcePoint"/>
                        <mxPoint x="730.1542229977217" y="493.15546043889333" as="targetPoint"/>
                        <mxPoint as="offset"/>
                    </mxGeometry>
                </mxCell>
                <mxCell id="32" value="Update Team" style="ellipse;whiteSpace=wrap;html=1;" vertex="1" parent="1">
                    <mxGeometry x="610" y="550" width="120" height="70" as="geometry"/>
                </mxCell>
                <mxCell id="33" value="Add Player" style="ellipse;whiteSpace=wrap;html=1;" vertex="1" parent="1">
                    <mxGeometry x="750" y="420" width="120" height="70" as="geometry"/>
                </mxCell>
                <mxCell id="34" value="&amp;lt;&amp;lt;include&amp;gt;&amp;gt;" style="endArrow=open;endSize=12;html=1;" edge="1" parent="1" source="32" target="33">
                    <mxGeometry x="0.0182" y="21" width="160" relative="1" as="geometry">
                        <mxPoint x="661.5656860672166" y="501.3305047560318" as="sourcePoint"/>
                        <mxPoint x="798.2342354251236" y="438.56005951805287" as="targetPoint"/>
                        <mxPoint as="offset"/>
                    </mxGeometry>
                </mxCell>
                <mxCell id="35" value="" style="endArrow=none;html=1;" edge="1" parent="1" source="10" target="32">
                    <mxGeometry width="50" height="50" relative="1" as="geometry">
                        <mxPoint x="90" y="563.8788649448984" as="sourcePoint"/>
                        <mxPoint x="540.7729926506904" y="530.1870380146456" as="targetPoint"/>
                    </mxGeometry>
                </mxCell>
                <mxCell id="37" value="&amp;lt;&amp;lt;include&amp;gt;&amp;gt;" style="endArrow=open;endSize=12;html=1;" edge="1" parent="1" source="6" target="33">
                    <mxGeometry x="0.0182" y="21" width="160" relative="1" as="geometry">
                        <mxPoint x="664.2485232101471" y="615.0468814228441" as="sourcePoint"/>
                        <mxPoint x="805.9086165519084" y="575.1455873654654" as="targetPoint"/>
                        <mxPoint as="offset"/>
                    </mxGeometry>
                </mxCell>
            </root>
        </mxGraphModel>
    </diagram>
</mxfile>